<svg width="24" height="24" viewBox="0 0 24 24" fill="none" xmlns="http://www.w3.org/2000/svg">
<g id="icon_&#235;&#182;&#132;&#235;&#165;&#152;">
<path id="Vector" d="M2 17.8462C2 17.2089 2.51659 16.6923 3.15385 16.6923H20.8462C21.4834 16.6923 22 17.2089 22 17.8462C22 18.4834 21.4834 19 20.8462 19H3.15385C2.5166 19 2 18.4834 2 17.8462ZM22 9.61539C22 9.0631 21.5523 8.61538 21 8.61538H3C2.44772 8.61538 2 9.0631 2 9.61538V13.3846C2 13.9369 2.44772 14.3846 3 14.3846H21C21.5523 14.3846 22 13.9369 22 13.3846V9.61539ZM2 5.15385C2 4.51659 2.51659 4 3.15385 4H20.8462C21.4834 4 22 4.51659 22 5.15385C22 5.7911 21.4834 6.30769 20.8462 6.30769H3.15385C2.5166 6.30769 2 5.7911 2 5.15385Z" fill="#AAAAAA"/>
</g>
</svg>
