<svg width="40" height="40" viewBox="0 0 40 40" fill="none" xmlns="http://www.w3.org/2000/svg">
<path d="M30.2812 23.9374C30.0958 19.3664 27.2147 15.5321 23.2915 14.1923C23.3536 13.9263 23.3939 13.6529 23.3939 13.371C23.3939 11.5126 21.9741 10 20.2273 10C18.4804 10 17.0606 11.5126 17.0606 13.371C17.0606 13.6529 17.1009 13.9263 17.1631 14.1923C13.2399 15.5321 10.3588 19.3664 10.1734 23.9374C9.46752 24.4302 9 25.2772 9 26.2419C9 27.7632 10.1619 29 11.5909 29H28.8636C30.2927 29 31.4545 27.7632 31.4545 26.2419C31.4545 25.2785 30.9859 24.4314 30.2812 23.9374ZM18.7879 13.371C18.7879 12.5264 19.4339 11.8387 20.2273 11.8387C21.0207 11.8387 21.6667 12.5264 21.6667 13.371C21.6667 13.5168 21.6425 13.6566 21.6079 13.7902C21.1554 13.724 20.6971 13.6774 20.2273 13.6774C19.7575 13.6774 19.2992 13.724 18.8466 13.7902C18.8121 13.6566 18.7879 13.5168 18.7879 13.371ZM20.2273 15.5161C24.5385 15.5161 28.0967 19.0146 28.5308 23.4839H11.9237C12.3578 19.0146 15.916 15.5161 20.2273 15.5161ZM28.8636 27.1613H11.5909C11.1142 27.1613 10.7273 26.7494 10.7273 26.2419C10.7273 25.7345 11.1142 25.3226 11.5909 25.3226H28.8636C29.3404 25.3226 29.7273 25.7345 29.7273 26.2419C29.7273 26.7494 29.3404 27.1613 28.8636 27.1613Z" fill="#AAAAAA"/>
</svg>
