<svg width="24" height="25" viewBox="0 0 24 25" fill="none" xmlns="http://www.w3.org/2000/svg">
<g id="icon_&#234;&#179;&#181;&#236;&#167;&#128;&#236;&#130;&#172;&#237;&#149;&#173;">
<g id="Group 78">
<g id="Union">
<mask id="path-1-inside-1_2952_6187" fill="white">
<path fill-rule="evenodd" clip-rule="evenodd" d="M19.8474 18.7084C21.7973 16.7235 23 14.0022 23 11C23 4.92487 18.0751 0 12 0C5.92487 0 1 4.92487 1 11C1 16.9443 5.71503 21.7873 11.6091 21.9932V24.5127C11.6091 24.5127 16.6935 23.0422 19.8474 18.7084Z"/>
</mask>
<path d="M19.8474 18.7084L18.4206 17.3068L18.3171 17.4121L18.2302 17.5315L19.8474 18.7084ZM11.6091 21.9932H13.6091V20.0618L11.6789 19.9944L11.6091 21.9932ZM11.6091 24.5127H9.60913V27.1731L12.1648 26.4339L11.6091 24.5127ZM21.2741 20.11C23.5765 17.7663 25 14.5474 25 11H21C21 13.457 20.0181 15.6807 18.4206 17.3068L21.2741 20.11ZM25 11C25 3.8203 19.1797 -2 12 -2V2C16.9706 2 21 6.02944 21 11H25ZM12 -2C4.8203 -2 -1 3.8203 -1 11H3C3 6.02944 7.02944 2 12 2V-2ZM-1 11C-1 18.0255 4.57227 23.7487 11.5393 23.992L11.6789 19.9944C6.85779 19.826 3 15.8631 3 11H-1ZM9.60913 21.9932V24.5127H13.6091V21.9932H9.60913ZM11.6091 24.5127C12.1648 26.4339 12.1654 26.4338 12.166 26.4336C12.1663 26.4335 12.1669 26.4333 12.1674 26.4332C12.1683 26.4329 12.1693 26.4326 12.1704 26.4323C12.1726 26.4317 12.1751 26.4309 12.1779 26.4301C12.1835 26.4285 12.1904 26.4264 12.1985 26.424C12.2146 26.4192 12.2356 26.4128 12.2613 26.4048C12.3126 26.3888 12.3826 26.3664 12.4695 26.3373C12.6432 26.2791 12.885 26.1936 13.1809 26.078C13.7715 25.8471 14.5845 25.4932 15.5041 24.9911C17.3283 23.9949 19.6567 22.3693 21.4645 19.8852L18.2302 17.5315C16.8842 19.3812 15.0934 20.6578 13.587 21.4804C12.8412 21.8876 12.186 22.1721 11.7247 22.3525C11.4947 22.4424 11.3147 22.5056 11.198 22.5448C11.1397 22.5643 11.0974 22.5778 11.0727 22.5855C11.0604 22.5893 11.0525 22.5917 11.0492 22.5927C11.0475 22.5932 11.0471 22.5933 11.0478 22.5931C11.0481 22.593 11.0488 22.5928 11.0497 22.5925C11.0502 22.5924 11.0507 22.5922 11.0514 22.592C11.0517 22.592 11.0522 22.5918 11.0524 22.5918C11.0529 22.5916 11.0535 22.5914 11.6091 24.5127Z" fill="#AAAAAA" mask="url(#path-1-inside-1_2952_6187)"/>
</g>
<g id="Group 77">
<path id="Vector" d="M14.1182 14.6161C13.1725 14.6161 12.4029 13.8464 12.4029 12.9007V6.79175C12.4029 6.76361 12.4011 6.73548 12.3993 6.70825C12.4201 6.55759 12.431 6.40421 12.431 6.2481V5.08729C12.431 4.48738 11.9446 4 11.3437 4C10.7429 4 10.2564 4.48647 10.2564 5.08729V6.2481C10.2564 6.87343 9.74727 7.38259 9.12195 7.38259H8.08729C7.48738 7.38259 7 7.86906 7 8.46988C7 9.0707 7.48647 9.55717 8.08729 9.55717H9.12195C9.50949 9.55717 9.8816 9.49001 10.2283 9.36658V12.9016C10.2283 15.0463 11.9727 16.7907 14.1173 16.7907C14.7172 16.7907 15.2046 16.3042 15.2046 15.7034C15.2046 15.1025 14.7181 14.6161 14.1173 14.6161H14.1182Z" fill="#AAAAAA"/>
<path id="Vector_2" d="M14.2308 9.55719C14.8313 9.55719 15.3181 9.07039 15.3181 8.4699C15.3181 7.8694 14.8313 7.38261 14.2308 7.38261C13.6303 7.38261 13.1435 7.8694 13.1435 8.4699C13.1435 9.07039 13.6303 9.55719 14.2308 9.55719Z" fill="#AAAAAA"/>
</g>
</g>
</g>
</svg>
