<svg width="24" height="24" viewBox="0 0 24 24" fill="none" xmlns="http://www.w3.org/2000/svg">
<g id="icon_&#236;&#131;&#129;&#237;&#146;&#136;">
<path id="Vector" d="M19.0667 9.3125L19.7333 12.5H4.26667L4.93333 9.3125H19.0667ZM20.8889 5.0625C20.8889 4.4757 20.4132 4 19.8264 4H4.11111C3.55883 4 3.11111 4.44772 3.11111 5V5.125C3.11111 5.67728 3.55883 6.125 4.11111 6.125H19.8264C20.4132 6.125 20.8889 5.6493 20.8889 5.0625ZM21.0552 7.98278C20.9583 7.51942 20.5498 7.1875 20.0764 7.1875H3.9236C3.45022 7.1875 3.04169 7.51942 2.94478 7.98278L2.04079 12.305C2.01367 12.4346 2 12.5668 2 12.6992V13.5139C2 14.1275 2.49746 14.625 3.11111 14.625V20C3.11111 20.5523 3.55883 21 4.11111 21H13.2222C13.7745 21 14.2222 20.5523 14.2222 20V14.625H18.6667V19.8889C18.6667 20.5025 19.1641 21 19.7778 21C20.3914 21 20.8889 20.5025 20.8889 19.8889V14.625H20.9375C21.5243 14.625 22 14.1493 22 13.5625V12.9138C22 12.6387 21.9716 12.3643 21.9153 12.0949L21.0552 7.98278ZM5.33333 18.875V14.625H12V18.875H5.33333Z" fill="#AAAAAA"/>
</g>
</svg>
