<svg width="24" height="24" viewBox="0 0 24 24" fill="none" xmlns="http://www.w3.org/2000/svg">
<path d="M15.6364 2H8.36364C5.95636 2 4 3.97267 4 6.4C4 8.82733 5.95636 10.8 8.36364 10.8H15.6364C18.0436 10.8 20 8.82733 20 6.4C20 3.97267 18.0436 2 15.6364 2ZM15.6364 9.33333H8.36364C6.75636 9.33333 5.45455 8.02067 5.45455 6.4C5.45455 4.77933 6.75636 3.46667 8.36364 3.46667H15.6364C17.2436 3.46667 18.5455 4.77933 18.5455 6.4C18.5455 8.02067 17.2436 9.33333 15.6364 9.33333ZM8.36364 4.2C7.15636 4.2 6.18182 5.18267 6.18182 6.4C6.18182 7.61733 7.15636 8.6 8.36364 8.6C9.57091 8.6 10.5455 7.61733 10.5455 6.4C10.5455 5.18267 9.57091 4.2 8.36364 4.2Z" fill="#AAAAAA"/>
<path d="M8.36364 12.8H15.6364C18.0436 12.8 20 14.7727 20 17.2C20 19.6273 18.0436 21.6 15.6364 21.6H8.36364C5.95636 21.6 4 19.6273 4 17.2C4 14.7727 5.95636 12.8 8.36364 12.8ZM8.36364 20.1333H15.6364C17.2436 20.1333 18.5455 18.8207 18.5455 17.2C18.5455 15.5793 17.2436 14.2667 15.6364 14.2667H8.36364C6.75636 14.2667 5.45455 15.5793 5.45455 17.2C5.45455 18.8207 6.75636 20.1333 8.36364 20.1333ZM15.6364 15C16.8436 15 17.8182 15.9827 17.8182 17.2C17.8182 18.4173 16.8436 19.4 15.6364 19.4C14.4291 19.4 13.4545 18.4173 13.4545 17.2C13.4545 15.9827 14.4291 15 15.6364 15Z" fill="#AAAAAA"/>
</svg>
