<svg width="33" height="31" viewBox="0 0 33 31" fill="none" xmlns="http://www.w3.org/2000/svg">
<g id="ic_kakako" clip-path="url(#clip0_400_17811)">
<path id="Vector" d="M16.2855 0.0996094C7.2897 0.0996094 0 5.79309 0 12.8203C0 17.392 3.0888 21.4029 7.7253 23.6431C7.3854 24.8985 6.4911 28.1953 6.3129 28.8996C6.0918 29.7735 6.6363 29.7637 6.9927 29.529C7.2732 29.3431 11.4543 26.5322 13.2594 25.3224C14.2395 25.4659 15.2493 25.5409 16.2822 25.5409C25.2747 25.5409 32.5677 19.8474 32.5677 12.8203C32.5677 5.79309 25.278 0.0996094 16.2855 0.0996094Z" fill="#371D1E"/>
<g id="Group">
<g id="Group_2">
<path id="Vector_2" d="M4.92358 10.479H6.59998C6.59998 10.479 6.60988 15.0279 6.59998 16.0877C6.59998 16.8605 8.34238 16.8703 8.34238 16.0975L8.34898 10.5377C8.34898 10.5377 8.90998 10.541 10.0155 10.541C11.0583 10.541 11.0583 8.9203 10.0155 8.9203C8.84068 8.9203 4.91698 8.8877 4.91698 8.8877C3.93358 8.8877 3.93688 10.4757 4.91698 10.4757" fill="#FAE100"/>
<g id="Clip path group">
<mask id="mask0_400_17811" style="mask-type:luminance" maskUnits="userSpaceOnUse" x="4" y="8" width="7" height="9">
<g id="clippath-1">
<path id="Vector_3" d="M4.92358 10.479H6.59998C6.59998 10.479 6.60988 15.0279 6.59998 16.0877C6.59998 16.8605 8.34238 16.8703 8.34238 16.0975L8.34898 10.5377C8.34898 10.5377 8.90998 10.541 10.0155 10.541C11.0583 10.541 11.0583 8.9203 10.0155 8.9203C8.84068 8.9203 4.91698 8.8877 4.91698 8.8877C3.93358 8.8877 3.93688 10.4757 4.91698 10.4757" fill="white"/>
</g>
</mask>
<g mask="url(#mask0_400_17811)">
<g id="Group_3">
<path id="Vector_4" d="M11.0612 8.89062H3.93652V16.8732H11.0612V8.89062Z" fill="#FAE100"/>
</g>
</g>
</g>
</g>
<g id="Group_4">
<path id="Vector_5" d="M12.9462 10.7727L13.8801 13.6619H11.9364L12.9462 10.7727ZM11.9001 9.41948C11.4876 10.3162 9.99928 14.5553 9.50428 15.6803C9.14788 16.4923 10.689 17.1543 11.0454 16.3423L11.382 15.1847H14.4477C14.4477 15.1847 14.3421 15.2336 14.748 16.2934C15.078 17.1543 16.6719 16.5575 16.3386 15.6967C15.8667 14.4673 14.2398 10.0456 13.9428 9.41948C13.8075 9.12926 13.3158 8.92383 12.8406 8.92383C12.4479 8.92383 12.0618 9.06731 11.9001 9.41948Z" fill="#FAE100"/>
<g id="Clip path group_2">
<mask id="mask1_400_17811" style="mask-type:luminance" maskUnits="userSpaceOnUse" x="9" y="8" width="8" height="9">
<g id="clippath-4">
<path id="Vector_6" d="M12.9462 10.7727L13.8801 13.6619H11.9364L12.9462 10.7727ZM11.9001 9.41948C11.4876 10.3162 9.99928 14.5553 9.50428 15.6803C9.14788 16.4923 10.689 17.1543 11.0454 16.3423L11.382 15.1847H14.4477C14.4477 15.1847 14.3421 15.2336 14.748 16.2934C15.078 17.1543 16.6719 16.5575 16.3386 15.6967C15.8667 14.4673 14.2398 10.0456 13.9428 9.41948C13.8075 9.12926 13.3158 8.92383 12.8406 8.92383C12.4479 8.92383 12.0618 9.06731 11.9001 9.41948Z" fill="white"/>
</g>
</mask>
<g mask="url(#mask1_400_17811)">
<g id="Group_5">
<path id="Vector_7" d="M16.6748 8.92383H9.14746V17.1575H16.6748V8.92383Z" fill="#FAE100"/>
</g>
</g>
</g>
</g>
<g id="Group_6">
<path id="Vector_8" d="M16.9287 9.68687C16.9287 11.1282 16.9386 15.7717 16.9386 15.7717C16.9386 15.7717 16.8033 16.6945 17.6052 16.6945C18.4071 16.6945 20.1825 16.6847 20.9712 16.6847C21.7599 16.6847 21.7533 15.0282 20.9679 15.0282C20.1825 15.0282 18.7437 15.0184 18.7437 15.0184C18.7437 15.0184 18.7503 10.7238 18.747 9.68035C18.747 9.17491 18.2916 8.92383 17.8395 8.92383C17.3874 8.92383 16.932 9.17818 16.932 9.68361" fill="#FAE100"/>
<g id="Clip path group_3">
<mask id="mask2_400_17811" style="mask-type:luminance" maskUnits="userSpaceOnUse" x="16" y="8" width="6" height="9">
<g id="clippath-7">
<path id="Vector_9" d="M16.9287 9.68687C16.9287 11.1282 16.9386 15.7717 16.9386 15.7717C16.9386 15.7717 16.8033 16.6945 17.6052 16.6945C18.4071 16.6945 20.1825 16.6847 20.9712 16.6847C21.7599 16.6847 21.7533 15.0282 20.9679 15.0282C20.1825 15.0282 18.7437 15.0184 18.7437 15.0184C18.7437 15.0184 18.7503 10.7238 18.747 9.68035C18.747 9.17491 18.2916 8.92383 17.8395 8.92383C17.3874 8.92383 16.932 9.17818 16.932 9.68361" fill="white"/>
</g>
</mask>
<g mask="url(#mask2_400_17811)">
<g id="Group_7">
<path id="Vector_10" d="M21.757 8.92383H16.8037V16.6912H21.757V8.92383Z" fill="#FAE100"/>
</g>
</g>
</g>
</g>
<g id="Group_8">
<path id="Vector_11" d="M21.968 9.45502C21.9845 10.0876 21.9482 15.7974 21.9482 16.2213C21.9482 16.8898 23.6708 16.8865 23.6675 16.2213C23.6675 15.4452 23.6675 13.9746 23.6675 13.9746L24.1724 13.5735L26.3834 16.5539C26.8289 17.1376 28.2347 16.0844 27.7892 15.5007L25.4429 12.4452C25.4429 12.4452 27.0368 10.7431 27.6638 10.1268C28.0301 9.76806 26.8949 8.63654 26.5286 8.9985C26.1722 9.34741 23.6774 11.8159 23.6774 11.8159C23.6774 11.8159 23.7005 10.267 23.6774 9.40937C23.6675 9.08328 23.2649 8.92676 22.8524 8.92676C22.4102 8.92676 21.9581 9.10611 21.968 9.45502Z" fill="#FAE100"/>
<g id="Clip path group_4">
<mask id="mask3_400_17811" style="mask-type:luminance" maskUnits="userSpaceOnUse" x="21" y="8" width="7" height="9">
<g id="clippath-10">
<path id="Vector_12" d="M21.968 9.45502C21.9845 10.0876 21.9482 15.7974 21.9482 16.2213C21.9482 16.8898 23.6708 16.8865 23.6675 16.2213C23.6675 15.4452 23.6675 13.9746 23.6675 13.9746L24.1724 13.5735L26.3834 16.5539C26.8289 17.1376 28.2347 16.0844 27.7892 15.5007L25.4429 12.4452C25.4429 12.4452 27.0368 10.7431 27.6638 10.1268C28.0301 9.76806 26.8949 8.63654 26.5286 8.9985C26.1722 9.34741 23.6774 11.8159 23.6774 11.8159C23.6774 11.8159 23.7005 10.267 23.6774 9.40937C23.6675 9.08328 23.2649 8.92676 22.8524 8.92676C22.4102 8.92676 21.9581 9.10611 21.968 9.45502Z" fill="white"/>
</g>
</mask>
<g mask="url(#mask3_400_17811)">
<g id="Group_9">
<path id="Vector_13" d="M28.238 8.63965H21.9482V17.1342H28.238V8.63965Z" fill="#FAE100"/>
</g>
</g>
</g>
</g>
</g>
</g>
<defs>
<clipPath id="clip0_400_17811">
<rect width="33" height="30" fill="white" transform="translate(0 0.0996094)"/>
</clipPath>
</defs>
</svg>
