<svg width="30" height="30" viewBox="0 0 30 30" fill="none" xmlns="http://www.w3.org/2000/svg">
<g id="Attach file" clip-path="url(#clip0_812_17895)">
<g id="Ellipse 11">
<mask id="path-1-inside-1_812_17895" fill="white">
<path d="M21.4801 26.2238C21.8777 26.9125 21.6441 27.8005 20.9191 28.1274C18.9483 29.016 16.7966 29.4521 14.6232 29.3952C11.9684 29.3256 9.38454 28.5233 7.1573 27.077C4.93005 25.6306 3.14617 23.5964 2.00287 21.1995C0.85957 18.8025 0.401388 16.136 0.678982 13.4949C0.956576 10.8538 1.95913 8.34083 3.57581 6.23394C5.19248 4.12704 7.3603 2.50825 9.8396 1.55654C12.3189 0.604829 15.0131 0.357267 17.6243 0.841226C19.7621 1.23744 21.7761 2.11133 23.5191 3.3903C24.1603 3.86079 24.2042 4.77792 23.672 5.36894C23.1399 5.95995 22.2337 5.99911 21.581 5.5448C20.2416 4.61261 18.7147 3.97237 17.0994 3.673C15.0105 3.28583 12.8551 3.48388 10.8717 4.24525C8.88826 5.00662 7.15401 6.30165 5.86067 7.98717C4.56733 9.67268 3.76528 11.683 3.54321 13.7959C3.32113 15.9088 3.68768 18.042 4.60232 19.9596C5.51696 21.8772 6.94406 23.5045 8.72586 24.6616C10.5077 25.8187 12.5747 26.4605 14.6985 26.5162C16.3407 26.5592 17.9674 26.2504 19.4713 25.617C20.2042 25.3083 21.0825 25.535 21.4801 26.2238Z"/>
</mask>
<path d="M21.4801 26.2238C21.8777 26.9125 21.6441 27.8005 20.9191 28.1274C18.9483 29.016 16.7966 29.4521 14.6232 29.3952C11.9684 29.3256 9.38454 28.5233 7.1573 27.077C4.93005 25.6306 3.14617 23.5964 2.00287 21.1995C0.85957 18.8025 0.401388 16.136 0.678982 13.4949C0.956576 10.8538 1.95913 8.34083 3.57581 6.23394C5.19248 4.12704 7.3603 2.50825 9.8396 1.55654C12.3189 0.604829 15.0131 0.357267 17.6243 0.841226C19.7621 1.23744 21.7761 2.11133 23.5191 3.3903C24.1603 3.86079 24.2042 4.77792 23.672 5.36894C23.1399 5.95995 22.2337 5.99911 21.581 5.5448C20.2416 4.61261 18.7147 3.97237 17.0994 3.673C15.0105 3.28583 12.8551 3.48388 10.8717 4.24525C8.88826 5.00662 7.15401 6.30165 5.86067 7.98717C4.56733 9.67268 3.76528 11.683 3.54321 13.7959C3.32113 15.9088 3.68768 18.042 4.60232 19.9596C5.51696 21.8772 6.94406 23.5045 8.72586 24.6616C10.5077 25.8187 12.5747 26.4605 14.6985 26.5162C16.3407 26.5592 17.9674 26.2504 19.4713 25.617C20.2042 25.3083 21.0825 25.535 21.4801 26.2238Z" stroke="#D9D9D9" stroke-width="2.88" mask="url(#path-1-inside-1_812_17895)"/>
</g>
</g>
<defs>
<clipPath id="clip0_812_17895">
<rect width="28.8" height="28.8" fill="white" transform="translate(0.600098 0.600098)"/>
</clipPath>
</defs>
</svg>
