<svg width="40" height="40" viewBox="0 0 40 40" fill="none" xmlns="http://www.w3.org/2000/svg">
<path d="M19.4171 32.3899V37.5556C19.4171 37.5556 34.9429 33.0735 34.9429 17.9555" fill="#FC0000"/>
<path d="M19.9851 33.9109C28.8134 33.9109 35.9701 26.7674 35.9701 17.9555C35.9701 9.1435 28.8134 2 19.9851 2C11.1568 2 4 9.1435 4 17.9555C4 26.7674 11.1568 33.9109 19.9851 33.9109Z" fill="#FC0000"/>
<path d="M23.3248 25.3723C21.6338 25.3723 20.2576 23.9987 20.2576 22.3108V11.4076C20.2576 11.3574 20.2544 11.3072 20.2511 11.2586C20.2885 10.9897 20.3079 10.716 20.3079 10.4373V8.36556C20.3079 7.29484 19.4381 6.42499 18.3638 6.42499C17.2894 6.42499 16.4196 7.29322 16.4196 8.36556V10.4373C16.4196 11.5534 15.5092 12.4621 14.391 12.4621H12.541C11.4683 12.4621 10.5968 13.3304 10.5968 14.4027C10.5968 15.4751 11.4666 16.3433 12.541 16.3433H14.391C15.084 16.3433 15.7493 16.2234 16.3693 16.0031V22.3124C16.3693 26.1401 19.4884 29.2534 23.3232 29.2534C24.3959 29.2534 25.2674 28.3852 25.2674 27.3129C25.2674 26.2405 24.3975 25.3723 23.3232 25.3723H23.3248Z" fill="white"/>
<path d="M23.5264 16.3434C24.6001 16.3434 25.4706 15.4746 25.4706 14.4029C25.4706 13.3311 24.6001 12.4623 23.5264 12.4623C22.4527 12.4623 21.5822 13.3311 21.5822 14.4029C21.5822 15.4746 22.4527 16.3434 23.5264 16.3434Z" fill="white"/>
</svg>
