<svg width="108" height="40" viewBox="0 0 108 40" fill="none" xmlns="http://www.w3.org/2000/svg">
<path d="M70.0737 18.6625C69.2712 18.6625 68.5874 18.7289 68.0277 18.8618C67.4654 18.9946 66.9215 19.2443 66.3962 19.6109C66.0609 19.8474 65.7916 20.1688 65.5857 20.5806C65.3798 20.9924 65.2794 21.3803 65.2794 21.7495V28.338H62.1932V16.1095H65.2794V17.3873C65.95 16.8879 66.6998 16.5213 67.5235 16.2848C68.3472 16.051 69.1999 15.9315 70.0737 15.9315V18.6652V18.6625Z" fill="white"/>
<path d="M107 18.6625C106.197 18.6625 105.514 18.7289 104.954 18.8618C104.392 18.9946 103.848 19.2443 103.322 19.6109C102.987 19.8474 102.718 20.1688 102.512 20.5806C102.306 20.9924 102.206 21.3803 102.206 21.7495V28.338H99.1195V16.1095H102.206V17.3873C102.876 16.8879 103.626 16.5213 104.45 16.2848C105.273 16.051 106.126 15.9315 107 15.9315V18.6652V18.6625Z" fill="white"/>
<path d="M40.8856 19.2549H44.249V16.8108H40.8856V13.6786L35.7164 18.6838V19.2549H37.9498V24.7993C37.9498 27.0894 39.1379 28.3353 41.7277 28.3353H44.2516V25.429H42.5039C41.5297 25.429 40.8882 25.1314 40.8882 24.0342V19.2523L40.8856 19.2549Z" fill="white"/>
<path d="M80.1111 12.4646V17.6052C79.0921 16.7896 77.8037 16.3008 76.3992 16.3008C73.0965 16.3008 70.4196 18.9946 70.4196 22.318C70.4196 25.6415 73.0965 28.3353 76.3992 28.3353C77.8037 28.3353 79.0921 27.8438 80.1111 27.0309V28.3353H83.3425V12.4646H80.1111ZM76.9325 25.4848C75.1795 25.4848 73.7566 24.0555 73.7566 22.2888C73.7566 20.5222 75.1769 19.0929 76.9325 19.0929C78.6881 19.0929 80.1085 20.5222 80.1085 22.2888C80.1085 24.0555 78.6881 25.4848 76.9325 25.4848Z" fill="white"/>
<path d="M54.3154 16.1174C50.9625 16.1174 48.2433 18.8538 48.2433 22.2277C48.2433 25.6016 50.9625 28.338 54.3154 28.338C57.6682 28.338 60.3874 25.6016 60.3874 22.2277C60.3874 18.8538 57.6682 16.1174 54.3154 16.1174ZM54.3154 25.5113C52.5122 25.5113 51.0496 24.0395 51.0496 22.225C51.0496 20.4106 52.5122 18.9388 54.3154 18.9388C56.1185 18.9388 57.5811 20.4106 57.5811 22.225C57.5811 24.0395 56.1185 25.5113 54.3154 25.5113Z" fill="white"/>
<path d="M97.2662 22.9981C97.2978 22.7457 97.319 22.488 97.319 22.2277C97.319 18.8538 94.5997 16.1174 91.2469 16.1174C87.894 16.1174 85.1748 18.8538 85.1748 22.2277C85.1748 25.6016 87.894 28.338 91.2469 28.338C93.908 28.338 96.1626 26.6112 96.9837 24.2149H93.8447C93.248 25.0039 92.3082 25.514 91.2469 25.514C89.7077 25.514 88.4194 24.4407 88.0762 22.9955H94.4202C94.4202 22.9955 94.4202 22.9955 94.4202 22.9981H97.2662ZM91.2495 18.9414C92.5695 18.9414 93.7048 19.7331 94.2196 20.8675H88.2795C88.7943 19.7331 89.9295 18.9414 91.2495 18.9414Z" fill="white"/>
<path d="M47.219 13.7185C47.0738 13.6468 46.9101 13.6069 46.7385 13.6069C46.1313 13.6069 45.6376 14.1037 45.6376 14.7148C45.6376 14.9857 45.7353 15.2328 45.8964 15.4267C45.8964 15.4267 45.9096 15.44 45.9148 15.448C45.9175 15.4533 45.9228 15.456 45.9254 15.4613C47.4249 17.1961 45.7485 18.5403 45.7485 18.5403C45.7485 18.5403 45.8752 18.7369 45.9307 18.8246C48.7001 17.9877 48.51 14.3322 47.2164 13.7212L47.219 13.7185Z" fill="#E20F23"/>
<path d="M45.9592 18.8608C45.9592 18.8608 45.9489 18.8452 45.9334 18.8219L45.9592 18.8608Z" fill="white"/>
<path d="M21.2781 26.5952L31.6429 20.1157L21.2755 13.7025" stroke="white" stroke-width="0.980893" stroke-linecap="square" stroke-linejoin="round"/>
<path d="M21.2755 13.7025L11.3569 7.66666L1 14.1595L10.8632 20.2246" stroke="white" stroke-width="0.980893" stroke-linecap="square" stroke-linejoin="round"/>
<path d="M20.9745 13.8805L10.8632 20.2246V20.5886V33.1359L21.2781 26.5952V26.5261L21.2755 14.0665V13.7025L20.9745 13.8805Z" stroke="white" stroke-width="0.980893" stroke-linecap="square" stroke-linejoin="round"/>
</svg>
