<svg width="48" height="53" viewBox="0 0 48 53" fill="none" xmlns="http://www.w3.org/2000/svg">
<path fill-rule="evenodd" clip-rule="evenodd" d="M48 23.202C48 10.3879 37.2548 0 24 0C10.7452 0 0 10.3879 0 23.202C0 35.3023 9.58051 45.2356 21.8071 46.3073V51.7038C21.8071 52.1113 22.0045 52.4953 22.3407 52.7403C22.5746 52.9099 22.8597 52.9994 23.1472 52.9994C23.2715 52.9994 23.3982 52.9829 23.52 52.9476C23.7685 52.8792 29.6625 51.1974 35.6248 46.7195C41.8648 42.032 45.7998 36.0231 47.2106 29.119C47.7247 27.2299 48 25.2465 48 23.202ZM29.0582 33.9872C26.5155 33.9872 24.4462 31.9897 24.4462 29.5352V13.6802C24.4462 13.6072 24.4413 13.5341 24.4365 13.4635C24.4926 13.0724 24.5219 12.6744 24.5219 12.2692V9.25649C24.5219 7.69949 23.2139 6.43457 21.5985 6.43457C19.983 6.43457 18.6751 7.69713 18.6751 9.25649V12.2692C18.6751 13.8922 17.3061 15.2136 15.6248 15.2136H12.8429C11.2299 15.2136 9.91955 16.4762 9.91955 18.0355C9.91955 19.5949 11.2275 20.8575 12.8429 20.8575H15.6248C16.6668 20.8575 17.6673 20.6832 18.5994 20.3628V29.5376C18.5994 35.1037 23.2896 39.631 29.0558 39.631C30.6688 39.631 31.9792 38.3685 31.9792 36.8091C31.9792 35.2497 30.6712 33.9872 29.0558 33.9872H29.0582ZM32.2838 18.0358C32.2838 19.5943 30.9749 20.8577 29.3604 20.8577C27.7458 20.8577 26.437 19.5943 26.437 18.0358C26.437 16.4773 27.7458 15.2139 29.3604 15.2139C30.9749 15.2139 32.2838 16.4773 32.2838 18.0358Z" fill="#303745"/>
</svg>
