<svg width="36" height="22" viewBox="0 0 36 22" fill="none" xmlns="http://www.w3.org/2000/svg">
<path d="M12.6114 21.25C12.0286 21.25 11.4685 21.0238 11.049 20.6191L2.75814 12.6191C1.84125 11.7344 1.84125 10.2656 2.75814 9.38086L11.049 1.38086C11.4685 0.97616 12.0285 0.75 12.6114 0.75H31C32.1272 0.75 33.2082 1.19777 34.0052 1.9948C34.8022 2.79183 35.25 3.87283 35.25 5V17C35.25 18.1272 34.8022 19.2082 34.0052 20.0052C33.2082 20.8022 32.1272 21.25 31 21.25H12.6114Z" stroke="white" stroke-width="1.5"/>
<path d="M23 11L18 16M23 11L18 6M23 11L28 6M23 11L28 16" stroke="white" stroke-width="1.5"/>
</svg>
