<svg width="20" height="20" viewBox="0 0 20 20" fill="none" xmlns="http://www.w3.org/2000/svg">
<path d="M2 16.7662V11.9058H6.909" stroke="#AAAAAA" stroke-width="1.6" stroke-linecap="round" stroke-linejoin="round"/>
<path d="M2 12C2 12 3.86729 14.6014 4.8 15.4375C5.73271 16.2735 6.76725 16.9447 7.96212 17.2868C9.157 17.629 10.4199 17.6659 11.6331 17.3941C12.8463 17.1224 13.9702 16.5508 14.8999 15.7327C15.8297 14.9146 16.535 13.8766 16.95 12.7157" stroke="#AAAAAA" stroke-width="1.6" stroke-linecap="round" stroke-linejoin="round"/>
<path d="M17.9502 2.80757V7.66797H13.0412" stroke="#AAAAAA" stroke-width="1.6" stroke-linecap="round" stroke-linejoin="round"/>
<path d="M17.9502 7.57373C17.9502 7.57373 16.0829 4.97234 15.1502 4.13627C14.2175 3.3002 13.1829 2.62905 11.9881 2.28689C10.7932 1.94474 9.53025 1.90783 8.31707 2.1796C7.10389 2.45137 5.98001 3.02297 5.05027 3.84107C4.12053 4.65917 3.41524 5.69711 3.00019 6.85805" stroke="#AAAAAA" stroke-width="1.6" stroke-linecap="round" stroke-linejoin="round"/>
</svg>
