<svg width="20" height="20" viewBox="0 0 20 20" fill="none" xmlns="http://www.w3.org/2000/svg">
    <g id="icon_setting" clip-path="url(#clip0_928_6219)">
        <path id="Vector 2"
            d="M16.572 3.84397L16.1518 3.4238C15.5459 2.81786 14.5836 2.75795 13.9071 3.28405L13.7115 3.43622C13.3807 3.69352 12.9432 3.76846 12.5456 3.63593C12.148 3.50341 11.843 3.18094 11.7327 2.77662L11.647 2.46241C11.4261 1.65234 10.6903 1.09035 9.85062 1.09035H9.56962C8.8331 1.09035 8.19897 1.61021 8.05453 2.33243L8.01695 2.5203C7.93145 2.94782 7.62342 3.29676 7.2098 3.43463C6.83158 3.5607 6.41557 3.4932 6.09663 3.25399L5.96677 3.15659C5.35973 2.70131 4.51029 2.76168 3.97374 3.29823L3.45124 3.82073C2.94867 4.3233 2.89213 5.11893 3.31857 5.68752C3.64315 6.12028 3.69535 6.69929 3.45343 7.18313L3.3381 7.41379C3.12707 7.83586 2.71646 8.12217 2.24745 8.17428C1.57787 8.24868 1.05783 8.79217 1.01302 9.46438L0.981128 9.94274C0.922783 10.8179 1.53762 11.5947 2.4028 11.7389L2.53386 11.7607C3.08081 11.8519 3.5316 12.2398 3.70328 12.7671C3.85462 13.2318 3.76788 13.7413 3.47126 14.1298L3.43133 14.1821C2.94123 14.824 3.00168 15.7295 3.57275 16.3006L3.86707 16.5949C4.46356 17.1914 5.40934 17.2545 6.07983 16.7426L6.26267 16.603C6.54166 16.39 6.90046 16.3111 7.24308 16.3873C7.74811 16.4997 8.1226 16.9256 8.16944 17.4409L8.18858 17.6514C8.25445 18.376 8.83742 18.9451 9.56337 18.9935L9.92825 19.0178C10.8339 19.0782 11.6566 18.4921 11.8954 17.6164L11.9908 17.2667C12.0746 16.9596 12.2737 16.6967 12.5467 16.5329C12.9377 16.2983 13.4262 16.2983 13.8172 16.5329L14.1038 16.7048C14.8087 17.1278 15.7111 17.0167 16.2925 16.4354L16.7017 16.0262C17.2382 15.4896 17.2986 14.6402 16.8433 14.0331L16.7459 13.9033C16.5067 13.5843 16.4392 13.1683 16.5653 12.7901C16.7031 12.3765 17.0521 12.0684 17.4796 11.9829L17.6675 11.9454C18.3897 11.8009 18.9095 11.1668 18.9095 10.4303V10.1493C18.9095 9.30961 18.3476 8.57383 17.5375 8.3529L17.2233 8.26721C16.819 8.15694 16.4965 7.8519 16.364 7.45431C16.2314 7.05673 16.3064 6.61921 16.5637 6.2884L16.7123 6.09733C17.2404 5.41829 17.1803 4.45225 16.572 3.84397Z"
            stroke="#fc0000" stroke-width="1.26667" />
        <circle id="Ellipse 1" cx="10" cy="10" r="3.36667" stroke="#fc0000" stroke-width="1.26667" />
    </g>
    <defs>
        <clipPath id="clip0_928_6219">
            <rect width="20" height="20" fill="white" />
        </clipPath>
    </defs>
</svg>