<svg width="33" height="30" viewBox="0 0 33 30" fill="none" xmlns="http://www.w3.org/2000/svg">
<g id="ic_kakako" clip-path="url(#clip0_2296_32654)">
<path id="Vector" d="M16.2855 0C7.2897 0 0 5.69348 0 12.7206C0 17.2924 3.0888 21.3033 7.7253 23.5435C7.3854 24.7989 6.4911 28.0956 6.3129 28.8C6.0918 29.6739 6.6363 29.6641 6.9927 29.4293C7.2732 29.2435 11.4543 26.4326 13.2594 25.2228C14.2395 25.3663 15.2493 25.4413 16.2822 25.4413C25.2747 25.4413 32.5677 19.7478 32.5677 12.7206C32.5677 5.69348 25.278 0 16.2855 0Z" fill="#371D1E"/>
<g id="Group">
<g id="Group_2">
<path id="Vector_2" d="M4.92358 10.3794H6.59998C6.59998 10.3794 6.60988 14.9283 6.59998 15.9881C6.59998 16.7609 8.34238 16.7707 8.34238 15.9979L8.34898 10.4381C8.34898 10.4381 8.90998 10.4413 10.0155 10.4413C11.0583 10.4413 11.0583 8.82069 10.0155 8.82069C8.84068 8.82069 4.91698 8.78809 4.91698 8.78809C3.93358 8.78809 3.93688 10.3761 4.91698 10.3761" fill="#FAE100"/>
<g id="Clip path group">
<mask id="mask0_2296_32654" style="mask-type:luminance" maskUnits="userSpaceOnUse" x="4" y="8" width="7" height="9">
<g id="clippath-1">
<path id="Vector_3" d="M4.92358 10.3794H6.59998C6.59998 10.3794 6.60988 14.9283 6.59998 15.9881C6.59998 16.7609 8.34238 16.7707 8.34238 15.9979L8.34898 10.4381C8.34898 10.4381 8.90998 10.4413 10.0155 10.4413C11.0583 10.4413 11.0583 8.82069 10.0155 8.82069C8.84068 8.82069 4.91698 8.78809 4.91698 8.78809C3.93358 8.78809 3.93688 10.3761 4.91698 10.3761" fill="white"/>
</g>
</mask>
<g mask="url(#mask0_2296_32654)">
<g id="Group_3">
<path id="Vector_4" d="M11.0612 8.7915H3.93652V16.7741H11.0612V8.7915Z" fill="#FAE100"/>
</g>
</g>
</g>
</g>
<g id="Group_4">
<path id="Vector_5" d="M12.9462 10.6729L13.8801 13.562H11.9364L12.9462 10.6729ZM11.9001 9.31963C11.4876 10.2164 9.99928 14.4555 9.50428 15.5805C9.14788 16.3925 10.689 17.0544 11.0454 16.2425L11.382 15.0848H14.4477C14.4477 15.0848 14.3421 15.1338 14.748 16.1935C15.078 17.0544 16.6719 16.4577 16.3386 15.5968C15.8667 14.3675 14.2398 9.94571 13.9428 9.31963C13.8075 9.02941 13.3158 8.82397 12.8406 8.82397C12.4479 8.82397 12.0618 8.96745 11.9001 9.31963Z" fill="#FAE100"/>
<g id="Clip path group_2">
<mask id="mask1_2296_32654" style="mask-type:luminance" maskUnits="userSpaceOnUse" x="9" y="8" width="8" height="9">
<g id="clippath-4">
<path id="Vector_6" d="M12.9462 10.6729L13.8801 13.562H11.9364L12.9462 10.6729ZM11.9001 9.31963C11.4876 10.2164 9.99928 14.4555 9.50428 15.5805C9.14788 16.3925 10.689 17.0544 11.0454 16.2425L11.382 15.0848H14.4477C14.4477 15.0848 14.3421 15.1338 14.748 16.1935C15.078 17.0544 16.6719 16.4577 16.3386 15.5968C15.8667 14.3675 14.2398 9.94571 13.9428 9.31963C13.8075 9.02941 13.3158 8.82397 12.8406 8.82397C12.4479 8.82397 12.0618 8.96745 11.9001 9.31963Z" fill="white"/>
</g>
</mask>
<g mask="url(#mask1_2296_32654)">
<g id="Group_5">
<path id="Vector_7" d="M16.6748 8.82422H9.14746V17.0579H16.6748V8.82422Z" fill="#FAE100"/>
</g>
</g>
</g>
</g>
<g id="Group_6">
<path id="Vector_8" d="M16.9287 9.58702C16.9287 11.0283 16.9386 15.6718 16.9386 15.6718C16.9386 15.6718 16.8033 16.5946 17.6052 16.5946C18.4071 16.5946 20.1825 16.5848 20.9712 16.5848C21.7599 16.5848 21.7533 14.9283 20.9679 14.9283C20.1825 14.9283 18.7437 14.9185 18.7437 14.9185C18.7437 14.9185 18.7503 10.624 18.747 9.5805C18.747 9.07506 18.2916 8.82397 17.8395 8.82397C17.3874 8.82397 16.932 9.07832 16.932 9.58376" fill="#FAE100"/>
<g id="Clip path group_3">
<mask id="mask2_2296_32654" style="mask-type:luminance" maskUnits="userSpaceOnUse" x="16" y="8" width="6" height="9">
<g id="clippath-7">
<path id="Vector_9" d="M16.9287 9.58702C16.9287 11.0283 16.9386 15.6718 16.9386 15.6718C16.9386 15.6718 16.8033 16.5946 17.6052 16.5946C18.4071 16.5946 20.1825 16.5848 20.9712 16.5848C21.7599 16.5848 21.7533 14.9283 20.9679 14.9283C20.1825 14.9283 18.7437 14.9185 18.7437 14.9185C18.7437 14.9185 18.7503 10.624 18.747 9.5805C18.747 9.07506 18.2916 8.82397 17.8395 8.82397C17.3874 8.82397 16.932 9.07832 16.932 9.58376" fill="white"/>
</g>
</mask>
<g mask="url(#mask2_2296_32654)">
<g id="Group_7">
<path id="Vector_10" d="M21.757 8.82397H16.8037V16.5914H21.757V8.82397Z" fill="#FAE100"/>
</g>
</g>
</g>
</g>
<g id="Group_8">
<path id="Vector_11" d="M21.968 9.35541C21.9845 9.98802 21.9482 15.6978 21.9482 16.1217C21.9482 16.7902 23.6708 16.7869 23.6675 16.1217C23.6675 15.3456 23.6675 13.875 23.6675 13.875L24.1724 13.4739L26.3834 16.4543C26.8289 17.038 28.2347 15.9848 27.7892 15.4011L25.4429 12.3456C25.4429 12.3456 27.0368 10.6435 27.6638 10.0271C28.0301 9.66845 26.8949 8.53693 26.5286 8.89889C26.1722 9.2478 23.6774 11.7163 23.6774 11.7163C23.6774 11.7163 23.7005 10.1674 23.6774 9.30976C23.6675 8.98367 23.2649 8.82715 22.8524 8.82715C22.4102 8.82715 21.9581 9.0065 21.968 9.35541Z" fill="#FAE100"/>
<g id="Clip path group_4">
<mask id="mask3_2296_32654" style="mask-type:luminance" maskUnits="userSpaceOnUse" x="21" y="8" width="7" height="9">
<g id="clippath-10">
<path id="Vector_12" d="M21.968 9.35541C21.9845 9.98802 21.9482 15.6978 21.9482 16.1217C21.9482 16.7902 23.6708 16.7869 23.6675 16.1217C23.6675 15.3456 23.6675 13.875 23.6675 13.875L24.1724 13.4739L26.3834 16.4543C26.8289 17.038 28.2347 15.9848 27.7892 15.4011L25.4429 12.3456C25.4429 12.3456 27.0368 10.6435 27.6638 10.0271C28.0301 9.66845 26.8949 8.53693 26.5286 8.89889C26.1722 9.2478 23.6774 11.7163 23.6774 11.7163C23.6774 11.7163 23.7005 10.1674 23.6774 9.30976C23.6675 8.98367 23.2649 8.82715 22.8524 8.82715C22.4102 8.82715 21.9581 9.0065 21.968 9.35541Z" fill="white"/>
</g>
</mask>
<g mask="url(#mask3_2296_32654)">
<g id="Group_9">
<path id="Vector_13" d="M28.238 8.54028H21.9482V17.0348H28.238V8.54028Z" fill="#FAE100"/>
</g>
</g>
</g>
</g>
</g>
</g>
<defs>
<clipPath id="clip0_2296_32654">
<rect width="33" height="30" fill="white"/>
</clipPath>
</defs>
</svg>
