<svg width="57" height="64" viewBox="0 0 57 64" fill="none" xmlns="http://www.w3.org/2000/svg">
<path fill-rule="evenodd" clip-rule="evenodd" d="M55.8968 28.0175C55.8968 12.5439 43.3838 0 27.9484 0C12.5129 0 0 12.5439 0 28.0175C0 42.6292 11.1567 54.6241 25.3947 55.9183V62.4348C25.3947 62.9269 25.6246 63.3905 26.0161 63.6864C26.2885 63.8912 26.6205 63.9993 26.9553 63.9993C27.1 63.9993 27.2475 63.9793 27.3894 63.9367C27.6788 63.8542 34.5425 61.8233 41.4856 56.416C48.7522 50.7557 53.3346 43.4996 54.9774 35.1626C55.5761 32.8814 55.8968 30.4864 55.8968 28.0175ZM33.788 41.0413C30.8314 41.0413 28.4253 38.6292 28.4253 35.6653V16.5196C28.4253 16.4314 28.4196 16.3432 28.4139 16.2579C28.4792 15.7857 28.5132 15.305 28.5132 14.8158V11.1778C28.5132 9.29763 26.9924 7.77018 25.114 7.77018C23.2357 7.77018 21.7148 9.29478 21.7148 11.1778V14.8158C21.7148 16.7756 20.123 18.3713 18.1681 18.3713H14.9334C13.0579 18.3713 11.5342 19.8959 11.5342 21.7789C11.5342 23.6619 13.0551 25.1865 14.9334 25.1865H18.1681C19.3796 25.1865 20.543 24.976 21.6269 24.5892V35.6682C21.6269 42.3895 27.0803 47.8565 33.7851 47.8565C35.6606 47.8565 37.1843 46.3319 37.1843 44.4489C37.1843 42.5659 35.6635 41.0413 33.7851 41.0413H33.788ZM37.5384 21.779C37.5384 23.661 36.0165 25.1866 34.1392 25.1866C32.2618 25.1866 30.74 23.661 30.74 21.779C30.74 19.897 32.2618 18.3714 34.1392 18.3714C36.0165 18.3714 37.5384 19.897 37.5384 21.779Z" fill="white"/>
</svg>
