<svg width="20" height="20" viewBox="0 0 20 20" fill="none" xmlns="http://www.w3.org/2000/svg">
<g id="Attach file" clip-path="url(#clip0_116_6222)">
<path id="Vector" d="M13.6364 4.54545V15C13.6364 17.0091 12.0091 18.6364 10 18.6364C7.99091 18.6364 6.36364 17.0091 6.36364 15V3.63636C6.36364 2.38182 7.38182 1.36364 8.63636 1.36364C9.89091 1.36364 10.9091 2.38182 10.9091 3.63636V13.1818C10.9091 13.6818 10.5 14.0909 10 14.0909C9.5 14.0909 9.09091 13.6818 9.09091 13.1818V4.54545H7.72727V13.1818C7.72727 14.4364 8.74545 15.4545 10 15.4545C11.2545 15.4545 12.2727 14.4364 12.2727 13.1818V3.63636C12.2727 1.62727 10.6455 0 8.63636 0C6.62727 0 5 1.62727 5 3.63636V15C5 17.7636 7.23636 20 10 20C12.7636 20 15 17.7636 15 15V4.54545H13.6364Z" fill="#AAAAAA"/>
</g>
<defs>
<clipPath id="clip0_116_6222">
<rect width="20" height="20" fill="white"/>
</clipPath>
</defs>
</svg>
