<svg width="24" height="24" viewBox="0 0 24 24" fill="none" xmlns="http://www.w3.org/2000/svg">
<g id="icon_rock">
<g id="Subtract">
<mask id="path-1-inside-1_1942_10267" fill="white">
<path fill-rule="evenodd" clip-rule="evenodd" d="M4.80002 9.59998C3.47454 9.59998 2.40002 10.6745 2.40002 12V21.6C2.40002 22.9255 3.47454 24 4.80002 24H19.2C20.5255 24 21.6 22.9255 21.6 21.6V12C21.6 10.6745 20.5255 9.59998 19.2 9.59998H4.80002ZM13.9117 15.1116C13.9117 15.7587 13.5901 16.3308 13.098 16.6766C13.1126 16.7017 13.1266 16.7275 13.1399 16.7541L14.2639 19.002C14.6876 19.8494 14.0714 20.8464 13.124 20.8464H10.8761C9.9287 20.8464 9.31254 19.8494 9.73621 19.002L10.8602 16.7541C10.8735 16.7275 10.8875 16.7017 10.9021 16.6766C10.41 16.3308 10.0885 15.7587 10.0885 15.1116C10.0885 14.0558 10.9443 13.2 12.0001 13.2C13.0558 13.2 13.9117 14.0558 13.9117 15.1116Z"/>
</mask>
<path fill-rule="evenodd" clip-rule="evenodd" d="M4.80002 9.59998C3.47454 9.59998 2.40002 10.6745 2.40002 12V21.6C2.40002 22.9255 3.47454 24 4.80002 24H19.2C20.5255 24 21.6 22.9255 21.6 21.6V12C21.6 10.6745 20.5255 9.59998 19.2 9.59998H4.80002ZM13.9117 15.1116C13.9117 15.7587 13.5901 16.3308 13.098 16.6766C13.1126 16.7017 13.1266 16.7275 13.1399 16.7541L14.2639 19.002C14.6876 19.8494 14.0714 20.8464 13.124 20.8464H10.8761C9.9287 20.8464 9.31254 19.8494 9.73621 19.002L10.8602 16.7541C10.8735 16.7275 10.8875 16.7017 10.9021 16.6766C10.41 16.3308 10.0885 15.7587 10.0885 15.1116C10.0885 14.0558 10.9443 13.2 12.0001 13.2C13.0558 13.2 13.9117 14.0558 13.9117 15.1116Z" fill="#AAAAAA"/>
<path d="M13.098 16.6766L12.408 15.6948L11.5054 16.3292L12.0618 17.2818L13.098 16.6766ZM13.1399 16.7541L14.2132 16.2174L14.2132 16.2174L13.1399 16.7541ZM14.2639 19.002L13.1906 19.5387L13.1906 19.5387L14.2639 19.002ZM9.73621 19.002L8.6629 18.4654L9.73621 19.002ZM10.8602 16.7541L9.78688 16.2174L9.78687 16.2174L10.8602 16.7541ZM10.9021 16.6766L11.9383 17.2818L12.4947 16.3292L11.5921 15.6948L10.9021 16.6766ZM3.60002 12C3.60002 11.3372 4.13728 10.8 4.80002 10.8V8.39998C2.8118 8.39998 1.20002 10.0118 1.20002 12H3.60002ZM3.60002 21.6V12H1.20002V21.6H3.60002ZM4.80002 22.8C4.13728 22.8 3.60002 22.2627 3.60002 21.6H1.20002C1.20002 23.5882 2.8118 25.2 4.80002 25.2V22.8ZM19.2 22.8H4.80002V25.2H19.2V22.8ZM20.4 21.6C20.4 22.2627 19.8628 22.8 19.2 22.8V25.2C21.1883 25.2 22.8 23.5882 22.8 21.6H20.4ZM20.4 12V21.6H22.8V12H20.4ZM19.2 10.8C19.8628 10.8 20.4 11.3372 20.4 12H22.8C22.8 10.0118 21.1883 8.39998 19.2 8.39998V10.8ZM4.80002 10.8H19.2V8.39998H4.80002V10.8ZM13.788 17.6584C14.5861 17.0975 15.1117 16.166 15.1117 15.1116H12.7117C12.7117 15.3515 12.5941 15.5641 12.408 15.6948L13.788 17.6584ZM14.2132 16.2174C14.1884 16.1677 14.162 16.1191 14.1342 16.0714L12.0618 17.2818C12.0632 17.2843 12.0649 17.2873 12.0666 17.2908L14.2132 16.2174ZM15.3372 18.4654L14.2132 16.2174L12.0666 17.2907L13.1906 19.5387L15.3372 18.4654ZM13.124 22.0464C14.9634 22.0464 16.1598 20.1106 15.3372 18.4654L13.1906 19.5387C13.2004 19.5583 13.2003 19.5687 13.2 19.5745C13.1994 19.5835 13.1961 19.5968 13.1873 19.6111C13.1785 19.6254 13.1681 19.6342 13.1603 19.6388C13.1552 19.6417 13.1459 19.6464 13.124 19.6464V22.0464ZM10.8761 22.0464H13.124V19.6464H10.8761V22.0464ZM8.6629 18.4654C7.84028 20.1106 9.03664 22.0464 10.8761 22.0464V19.6464C10.8542 19.6464 10.8449 19.6417 10.8398 19.6388C10.832 19.6342 10.8216 19.6254 10.8128 19.6111C10.804 19.5968 10.8007 19.5835 10.8001 19.5745C10.7998 19.5687 10.7997 19.5583 10.8095 19.5387L8.6629 18.4654ZM9.78687 16.2174L8.6629 18.4654L10.8095 19.5387L11.9335 17.2907L9.78687 16.2174ZM9.86588 16.0714C9.83807 16.1191 9.81173 16.1677 9.78688 16.2174L11.9335 17.2908C11.9352 17.2873 11.9369 17.2843 11.9383 17.2818L9.86588 16.0714ZM8.88846 15.1116C8.88846 16.166 9.41402 17.0975 10.2121 17.6584L11.5921 15.6948C11.406 15.5641 11.2885 15.3515 11.2885 15.1116H8.88846ZM12.0001 12C10.2816 12 8.88846 13.3931 8.88846 15.1116H11.2885C11.2885 14.7186 11.607 14.4 12.0001 14.4V12ZM15.1117 15.1116C15.1117 13.3931 13.7185 12 12.0001 12V14.4C12.3931 14.4 12.7117 14.7186 12.7117 15.1116H15.1117Z" fill="#AAAAAA" mask="url(#path-1-inside-1_1942_10267)"/>
</g>
<path id="Ellipse 12" d="M7.19995 12V5.99995C7.19995 3.34898 9.34898 1.19995 12 1.19995C14.6509 1.19995 16.8 3.34898 16.8 5.99995V12" stroke="#AAAAAA" stroke-width="2.16"/>
</g>
</svg>
