<svg width="20" height="20" viewBox="0 0 20 20" fill="none" xmlns="http://www.w3.org/2000/svg">
<g id="icon_warning" clip-path="url(#clip0_1117_10695)">
<circle id="Ellipse 12" cx="10" cy="10" r="9.33333" stroke="#AAAAAA" stroke-width="1.33333"/>
<path id="!" d="M10.2972 4C10.9566 4 11.4864 4.54353 11.4695 5.20273L11.3228 10.9222C11.3085 11.4784 10.8536 11.9219 10.2972 11.9219C9.74079 11.9219 9.28581 11.4784 9.27154 10.9222L9.12489 5.20273C9.10799 4.54353 9.63776 4 10.2972 4ZM9.0003 14.1406C8.98468 13.4219 9.57843 12.8359 10.3128 12.8438C11.0081 12.8359 11.6097 13.4219 11.6097 14.1406C11.6097 14.8672 11.0081 15.4531 10.3128 15.4531C9.57843 15.4531 8.98468 14.8672 9.0003 14.1406Z" fill="#AAAAAA"/>
</g>
<defs>
<clipPath id="clip0_1117_10695">
<rect width="20" height="20" fill="white"/>
</clipPath>
</defs>
</svg>
